<svg width="32" height="32" viewBox="0 0 32 32" fill="none" xmlns="http://www.w3.org/2000/svg">
<path d="M0 16C0 7.16344 7.16344 0 16 0C24.8366 0 32 7.16344 32 16C32 24.8366 24.8366 32 16 32C7.16344 32 0 24.8366 0 16Z" fill="#ECEFF1"/>
<path fill-rule="evenodd" clip-rule="evenodd" d="M19.0676 23C19.5926 23 20 22.5896 20 22.0688C20 21.8083 19.8981 21.5716 19.7179 21.3901L14.2331 15.9921L19.7179 10.6099C19.8981 10.4284 20 10.1838 20 9.93123C20 9.41037 19.5926 9 19.0676 9C18.8168 9 18.5975 9.0947 18.4251 9.26832L12.3291 15.2661C12.1097 15.4713 12 15.7238 12 16C12 16.2762 12.1097 16.513 12.3213 16.726L18.4172 22.7317C18.5975 22.9053 18.8168 23 19.0676 23Z" fill="#1A1A1A"/>
</svg>
