<svg width="32" height="32" viewBox="0 0 32 32" fill="none" xmlns="http://www.w3.org/2000/svg">
<path d="M0 16C0 7.16344 7.16344 0 16 0C24.8366 0 32 7.16344 32 16C32 24.8366 24.8366 32 16 32C7.16344 32 0 24.8366 0 16Z" fill="#ECEFF1"/>
<path fill-rule="evenodd" clip-rule="evenodd" d="M12.9324 23C12.4074 23 12 22.5896 12 22.0688C12 21.8083 12.1019 21.5716 12.2821 21.3901L17.7669 15.9921L12.2821 10.6099C12.1019 10.4284 12 10.1838 12 9.93123C12 9.41037 12.4074 9 12.9324 9C13.1832 9 13.4025 9.0947 13.5749 9.26832L19.6709 15.2661C19.8903 15.4713 20 15.7238 20 16C20 16.2762 19.8903 16.513 19.6787 16.726L13.5828 22.7317C13.4025 22.9053 13.1832 23 12.9324 23Z" fill="#1A1A1A"/>
</svg>
