<svg width="193" height="192" viewBox="0 0 193 192" fill="none" xmlns="http://www.w3.org/2000/svg">
<g clip-path="url(#clip0_35_4291)">
<path d="M29.6552 35.3108C31.5822 21.7112 43.3001 11.2183 57.4236 11.2183C61.6383 11.2183 65.7207 12.1704 69.4781 14.0057C75.7424 5.34366 85.8684 0 96.6877 0C107.507 0 117.633 5.34366 123.897 14.0057C127.655 12.1704 131.737 11.2183 135.952 11.2183C150.075 11.2183 161.793 21.7112 163.72 35.3108C180.361 40.159 192.417 55.7491 192.417 73.2931C192.417 90.9474 180.35 106.101 163.725 110.905C161.852 124.363 150.315 135.368 135.952 135.368C131.737 135.368 127.655 134.416 123.897 132.58C117.633 141.242 107.507 146.586 96.6877 146.586C85.8684 146.586 75.7424 141.242 69.4781 132.58C65.7207 134.416 61.6383 135.368 57.4236 135.368C43.0596 135.368 31.5231 124.362 29.6508 110.905C13.0215 106.1 0.958008 90.9436 0.958008 73.2931C0.958008 55.7491 13.0144 40.159 29.6552 35.3108Z" fill="#FFF7CC"/>
<path d="M133.903 47.4561C132.038 45.5912 129.78 44.1086 127.334 43.1376C124.505 35.8498 117.158 30.8238 109.3 30.9152H109.297C96.313 30.698 86.6881 44.0402 90.8164 56.2364L80.1248 66.9285C73.2362 64.7164 65.627 66.5262 60.4701 71.6829C50.6105 81.4256 54.1427 98.3934 67.0381 103.434C68.0088 105.879 69.4914 108.137 71.3567 110.002C75.1388 113.784 80.1051 115.675 85.0731 115.674C90.0399 115.674 95.0082 113.783 98.7895 110.002C103.947 104.845 105.756 97.236 103.544 90.347L114.235 79.6551C116.176 80.2834 118.174 80.59 120.16 80.5899C125.212 80.5895 130.185 78.606 133.902 74.8883C137.548 71.2428 139.556 66.3725 139.557 61.1744C139.558 55.9751 137.55 51.103 133.903 47.4561ZM131.561 72.5471C127.049 77.0596 120.314 78.4944 114.403 76.2017C113.791 75.9646 113.097 76.1108 112.633 76.5745L100.466 88.7426C100.003 89.205 99.8563 89.8964 100.091 90.507C102.369 96.4365 100.939 103.17 96.4481 107.661C88.2883 116.02 73.6014 112.665 69.8877 101.601C69.7213 101.125 69.347 100.751 68.8708 100.584C66.5772 99.7827 64.5384 98.5007 62.8113 96.7738C50.7421 84.1801 63.6128 64.4919 79.9647 70.3812C80.5753 70.6158 81.2669 70.469 81.7291 70.0064L93.8966 57.8384C94.3604 57.3746 94.5067 56.6806 94.2695 56.069C88.2474 39.8628 108.258 26.8121 120.674 38.911C122.376 40.6129 123.694 42.7083 124.485 44.9705C124.652 45.4465 125.026 45.8205 125.502 45.9869C136.617 49.8035 139.889 64.2884 131.561 72.5471Z" fill="#FED700"/>
<path d="M129.209 52.1397C127.708 50.6386 125.843 49.5273 123.818 48.9262C123.691 48.8886 123.568 48.8535 123.448 48.819C122.079 48.4242 122.038 48.3838 121.643 47.0143C121.609 46.8946 121.574 46.7716 121.536 46.6451C120.935 44.6191 119.824 42.7547 118.323 41.2536C115.917 38.847 112.694 37.527 109.258 37.5379C105.839 37.5482 102.642 38.8679 100.256 41.2536C97.8987 43.6108 96.5619 46.7191 96.4921 50.0055C96.4341 52.7337 97.2492 55.3786 98.8099 57.5994L81.4896 74.9207C76.4826 71.4138 69.577 71.9336 65.1445 76.3659C60.1886 81.1211 60.1887 89.6769 65.1445 94.432C66.6464 95.9338 68.5108 97.0452 70.5366 97.6459C70.6624 97.6831 70.7848 97.7182 70.9038 97.7523C71.5947 97.9503 71.9373 98.056 72.172 98.2907C72.4068 98.5255 72.5124 98.868 72.7106 99.5589C72.7447 99.6781 72.7798 99.8005 72.8172 99.9265C75.5245 109.154 87.3258 112.157 94.0972 105.318C98.5298 100.886 99.0495 93.9805 95.5424 88.9735L112.863 71.652C115.084 73.2128 117.73 74.0306 120.457 73.9699C123.744 73.9002 126.852 72.5634 129.209 70.2062C131.595 67.8205 132.915 64.6235 132.925 61.204C132.935 57.7653 131.616 54.5463 129.209 52.1397ZM126.868 67.8645C123.245 71.4871 117.646 71.6348 113.845 68.2074C113.191 67.6173 112.189 67.643 111.566 68.2663L92.1577 87.6753C91.5347 88.2983 91.5089 89.3003 92.0989 89.9548C95.4702 93.6934 95.3197 99.4134 91.756 102.977C86.7842 108.035 77.9508 105.789 75.992 98.9851C75.9576 98.8689 75.9253 98.756 75.8938 98.6462C75.6336 97.7386 75.3645 96.8 74.5137 95.9494C73.6629 95.0986 72.7242 94.8295 71.8164 94.5693C71.7065 94.5378 71.5937 94.5054 71.4778 94.4711C69.9795 94.0267 68.5991 93.2036 67.486 92.0905C63.8147 88.5679 63.8147 82.2299 67.486 78.7072C71.0494 75.1439 76.7696 74.993 80.5083 78.3643C81.1628 78.9542 82.1646 78.9286 82.7878 78.3054L102.196 58.8964C102.819 58.2734 102.845 57.2714 102.255 56.617C98.8275 52.816 98.975 47.2177 102.598 43.5949C104.361 41.8319 106.73 40.8567 109.269 40.8491C113.407 40.7759 117.23 43.6395 118.362 47.5869C118.397 47.7037 118.429 47.8171 118.461 47.9273C118.721 48.8344 118.99 49.7723 119.84 50.6227C120.691 51.4728 121.629 51.7419 122.536 52.0021C122.646 52.0337 122.759 52.0664 122.876 52.1008C124.375 52.5457 125.755 53.3688 126.868 54.4814C128.646 56.2598 129.622 58.6438 129.614 61.194C129.606 63.7324 128.631 66.1016 126.868 67.8645Z" fill="#FED700"/>
<path d="M109.945 47.5113L109.944 47.5105C109.297 46.864 108.25 46.8645 107.603 47.511C106.558 48.5403 107.326 50.3537 108.774 50.3378C110.222 50.3535 110.99 48.5405 109.945 47.5113Z" fill="#FED700"/>
<path d="M123.053 57.8109C122.407 57.1644 121.359 57.1647 120.712 57.8114C119.667 58.8408 120.436 60.654 121.884 60.6382C123.331 60.654 124.1 58.8408 123.054 57.8119L123.053 57.8109Z" fill="#FED700"/>
<path d="M111.883 59.2802L111.882 59.2794C110.198 57.8667 108.09 60.1898 109.656 61.7304C110.331 62.3441 111.378 62.2971 111.995 61.6189C112.61 60.9423 112.56 59.8951 111.883 59.2802Z" fill="#FED700"/>
<path d="M99.4668 67.0069L99.466 67.006C97.7819 65.5932 95.6734 67.9165 97.2396 69.457C97.9142 70.0707 98.9617 70.0237 99.5783 69.3456C100.193 68.6689 100.143 67.6218 99.4668 67.0069Z" fill="#FED700"/>
<path d="M95.245 78.0048C94.63 77.3283 93.5833 77.2788 92.9066 77.8939C92.23 78.5089 92.1805 79.5564 92.7957 80.2329C93.4123 80.9109 94.4598 80.9581 95.1344 80.3443C95.8111 79.7293 95.8609 78.6821 95.2458 78.0056L95.245 78.0048Z" fill="#FED700"/>
<path d="M81.6805 82.9282L81.6796 82.9274C79.9956 81.5145 77.887 83.838 79.4532 85.3784C80.1278 85.9921 81.1753 85.9451 81.7919 85.2669C82.407 84.5905 82.3571 83.5433 81.6805 82.9282Z" fill="#FED700"/>
<path d="M85.4838 94.9227C84.8373 94.2762 83.7894 94.2765 83.1428 94.923C82.0977 95.9525 82.8659 97.7657 84.3139 97.7498C85.7618 97.7657 86.53 95.9525 85.4846 94.9235L85.4838 94.9227Z" fill="#FED700"/>
<path d="M71.8982 84.6209C71.2517 83.9744 70.2039 83.9747 69.5572 84.6214C68.5122 85.6507 69.2804 87.4641 70.7284 87.4482C72.1764 87.4641 72.9444 85.651 71.8991 84.6219L71.8982 84.6209Z" fill="#FED700"/>
<path d="M175.216 191.46C172.118 191.46 169.607 188.949 169.607 185.851C169.607 182.753 172.118 180.242 175.216 180.242C178.314 180.242 180.825 182.753 180.825 185.851C180.825 188.949 178.314 191.46 175.216 191.46Z" fill="#FFF7CC"/>
<path d="M124.734 163.414C124.734 154.135 132.283 146.587 141.561 146.587C150.84 146.587 158.389 154.135 158.389 163.414C158.389 172.693 150.84 180.242 141.561 180.242C132.283 180.242 124.734 172.693 124.734 163.414ZM147.17 163.414C147.17 160.321 144.654 157.805 141.561 157.805C138.468 157.805 135.952 160.321 135.952 163.414C135.952 166.507 138.468 169.023 141.561 169.023C144.654 169.023 147.17 166.507 147.17 163.414Z" fill="#FFF7CC"/>
</g>
<defs>
<clipPath id="clip0_35_4291">
<rect width="191.459" height="191.459" fill="white" transform="matrix(-1 0 0 1 192.417 0)"/>
</clipPath>
</defs>
</svg>
