<svg width="127" height="73" viewBox="0 0 127 73" fill="none" xmlns="http://www.w3.org/2000/svg">
<path d="M121.549 44.3202C121.549 44.3202 114.905 15.3024 114.794 15.0667C113.408 10.7431 107.889 7.2722 98.3289 4.73077C88.9318 2.23179 76.4995 0.855957 63.3222 0.855957C50.1453 0.855957 37.7126 2.23179 28.3155 4.73077C18.751 7.27381 13.2319 10.7463 11.8488 15.0728C11.7388 15.3064 5.09614 44.3206 5.09614 44.3206C2.40916 45.2538 0.477417 47.8021 0.477417 50.8072C0.477417 58.404 7.71156 64.1794 21.9781 67.973C33.1097 70.9325 47.7926 72.563 63.3222 72.563C63.323 72.563 63.3238 72.563 63.3246 72.563C78.8538 72.563 93.5355 70.9333 104.666 67.9734C118.933 64.1798 126.167 58.4044 126.167 50.8072C126.167 47.8021 124.236 45.2537 121.549 44.3202ZM85.9674 50.3568C85.9674 53.586 83.3403 56.2135 80.1112 56.2135C76.9758 56.2135 74.4077 53.7376 74.2605 50.6382H52.3839C52.2363 53.7376 49.669 56.2135 46.534 56.2135C43.3045 56.2135 40.6774 53.586 40.6774 50.3568C40.6774 48.8274 41.2668 47.4329 42.2307 46.3886C41.2668 45.3443 40.6774 43.9499 40.6774 42.4204C40.6774 39.1913 43.3049 36.5637 46.534 36.5637C49.669 36.5637 52.2363 39.0397 52.3839 42.139H74.2605C74.4077 39.0397 76.9758 36.5637 80.1112 36.5637C83.3403 36.5637 85.9674 39.1913 85.9674 42.4204C85.9674 43.9499 85.378 45.3443 84.4141 46.3886C85.378 47.4329 85.9674 48.8274 85.9674 50.3568ZM95.6322 22.3801C86.9216 24.5827 75.4472 25.796 63.3222 25.796C51.1972 25.796 39.7228 24.5827 31.0122 22.3801C22.6343 20.2615 19.6869 17.9336 18.9656 16.9697C19.6934 15.9893 22.6464 13.6638 31.0138 11.5485C39.724 9.34585 51.1981 8.13295 63.3222 8.13295C75.4459 8.13295 86.92 9.34585 95.6302 11.5485C103.981 13.6601 106.938 15.98 107.674 16.9641C106.941 17.9461 103.987 20.2668 95.6322 22.3801Z" fill="#FFF7CC"/>
</svg>
